<svg width="40" height="56" viewBox="0 0 40 56" xmlns="http://www.w3.org/2000/svg" shape-rendering="crispEdges">
  <rect width="40" height="56" fill="none"></rect>
  <rect x="13" y="2" width="2" height="4" fill="#cc623d"></rect>
  <rect x="25" y="2" width="2" height="4" fill="#cc623d"></rect>
  <rect x="11" y="6" width="4" height="2" fill="#d96a43"></rect>
  <rect x="25" y="6" width="4" height="2" fill="#d96a43"></rect>
  <rect x="10" y="8" width="20" height="4" fill="#d86e47"></rect>
  <rect x="8" y="12" width="24" height="4" fill="#e7744c"></rect>
  <rect x="6" y="16" width="28" height="8" fill="#ea7a53"></rect>
  <rect x="8" y="24" width="24" height="4" fill="#e16f49"></rect>
  <rect x="10" y="28" width="20" height="4" fill="#db6944"></rect>
  <rect x="12" y="14" width="4" height="4" fill="#fffaf0"></rect>
  <rect x="24" y="14" width="4" height="4" fill="#fffaf0"></rect>
  <rect x="13" y="15" width="2" height="2" fill="#24465d"></rect>
  <rect x="25" y="15" width="2" height="2" fill="#24465d"></rect>
  <rect x="4" y="22" width="4" height="6" fill="#cd6340"></rect>
  <rect x="32" y="22" width="4" height="6" fill="#cd6340"></rect>
  <rect x="12" y="32" width="16" height="4" fill="#274f6d"></rect>
  <rect x="10" y="36" width="20" height="6" fill="#315f81"></rect>
  <rect x="15" y="32" width="2" height="10" fill="#88d6d1"></rect>
  <rect x="23" y="32" width="2" height="10" fill="#88d6d1"></rect>
  <rect x="12" y="42" width="6" height="8" fill="#243f58"></rect>
  <rect x="22" y="42" width="6" height="8" fill="#243f58"></rect>
  <rect x="10" y="50" width="10" height="4" fill="#4b5460"></rect>
  <rect x="20" y="50" width="10" height="4" fill="#4b5460"></rect>
</svg>